<?xml version="1.0" encoding="utf-8"?>
<!-- Generator: Adobe Illustrator 16.0.0, SVG Export Plug-In . SVG Version: 6.00 Build 0)  -->
<!DOCTYPE svg PUBLIC "-//W3C//DTD SVG 1.1//EN" "http://www.w3.org/Graphics/SVG/1.1/DTD/svg11.dtd">
<svg version="1.1" id="Layer_1" xmlns="http://www.w3.org/2000/svg" xmlns:xlink="http://www.w3.org/1999/xlink" x="0px" y="0px"
	 width="48px" height="48px" viewBox="0 0 48 48" enable-background="new 0 0 48 48" xml:space="preserve">
<path fill="#9590C4" d="M33.976,20.784c-0.966-3.433-4.131-5.866-7.748-5.866c-1.22,0-2.365,0.298-3.405,0.792
	c-0.338-1.934-1.227-3.729-2.629-5.131c-1.277-1.278-2.891-2.165-4.666-2.564c-0.248-0.058-0.504,0.019-0.679,0.196
	c-0.179,0.177-0.253,0.432-0.197,0.678c0.617,2.74-0.194,5.557-2.171,7.532c-1.977,1.979-4.794,2.789-7.534,2.174
	c-0.245-0.057-0.502,0.018-0.679,0.195c-0.178,0.176-0.252,0.436-0.196,0.68c0.398,1.775,1.285,3.387,2.563,4.664
	c0.607,0.607,1.299,1.096,2.032,1.52c-0.465,1.035-0.736,2.174-0.736,3.367c0,4.473,3.687,8.25,8.05,8.25h17.563
	c4.363,0,8.05-3.777,8.05-8.25C41.596,24.698,38.148,21.022,33.976,20.784z M7.671,23.101c-0.82-0.816-1.45-1.803-1.855-2.887
	c2.844,0.285,5.653-0.711,7.698-2.757c2.049-2.048,3.037-4.855,2.758-7.697c1.083,0.404,2.067,1.033,2.887,1.854
	c1.32,1.321,2.117,3.053,2.311,4.901c-1.5,1.115-2.611,2.734-3.05,4.643c-0.794-0.256-1.61-0.383-2.437-0.383
	c-2.697,0-5.134,1.447-6.602,3.604C8.764,24.024,8.18,23.612,7.671,23.101z M33.546,35.806H15.982c-3.569,0-6.586-3.107-6.586-6.785
	s3.017-6.783,6.586-6.783c0.922,0,1.834,0.199,2.705,0.594c0.215,0.096,0.461,0.086,0.666-0.029
	c0.203-0.117,0.338-0.322,0.365-0.555c0.369-3.344,3.167-5.865,6.509-5.865c3.127,0,5.84,2.221,6.455,5.279
	c0.068,0.344,0.371,0.592,0.718,0.592c0.076,0,0.125-0.006,0.146-0.016c3.571,0,6.586,3.105,6.586,6.783
	S37.117,35.806,33.546,35.806z"/>
</svg>
