<?xml version="1.0" encoding="utf-8"?>
<!-- Generator: Adobe Illustrator 16.0.0, SVG Export Plug-In . SVG Version: 6.00 Build 0)  -->
<!DOCTYPE svg PUBLIC "-//W3C//DTD SVG 1.1//EN" "http://www.w3.org/Graphics/SVG/1.1/DTD/svg11.dtd">
<svg version="1.1" id="Layer_1" xmlns="http://www.w3.org/2000/svg" xmlns:xlink="http://www.w3.org/1999/xlink" x="0px" y="0px"
	 width="48px" height="48px" viewBox="0 0 48 48" enable-background="new 0 0 48 48" xml:space="preserve">
<path fill="#FFFFFF" d="M24.077,35.79c6.704,0,12.156-5.454,12.156-12.157c0-6.702-5.452-12.156-12.156-12.156
	c-6.702,0-12.156,5.454-12.156,12.156C11.921,30.336,17.375,35.79,24.077,35.79z M24.077,12.996c5.866,0,10.637,4.771,10.637,10.637
	s-4.771,10.638-10.637,10.638c-5.864,0-10.637-4.772-10.637-10.638S18.213,12.996,24.077,12.996z"/>
<path fill="#FFFFFF" d="M23.064,7.931c0.421,0,0.76-0.34,0.76-0.76V1.093c0-0.42-0.339-0.76-0.76-0.76c-0.42,0-0.76,0.34-0.76,0.76
	v6.078C22.305,7.591,22.645,7.931,23.064,7.931z"/>
<path fill="#FFFFFF" d="M23.824,46.68v-6.078c0-0.42-0.339-0.76-0.76-0.76c-0.42,0-0.76,0.34-0.76,0.76v6.078
	c0,0.42,0.34,0.76,0.76,0.76C23.485,47.439,23.824,47.1,23.824,46.68z"/>
<path fill="#FFFFFF" d="M7.869,24.646c0-0.421-0.34-0.76-0.76-0.76H1.031c-0.42,0-0.76,0.339-0.76,0.76c0,0.42,0.34,0.76,0.76,0.76
	h6.078C7.529,25.406,7.869,25.066,7.869,24.646z"/>
<path fill="#FFFFFF" d="M46.618,23.887H40.54c-0.42,0-0.76,0.339-0.76,0.76c0,0.42,0.34,0.76,0.76,0.76h6.078
	c0.42,0,0.76-0.34,0.76-0.76C47.378,24.226,47.038,23.887,46.618,23.887z"/>
<path fill="#FFFFFF" d="M8.751,40.287l4.298-4.298c0.297-0.297,0.297-0.777,0-1.074s-0.777-0.297-1.074,0l-4.298,4.298
	c-0.297,0.296-0.297,0.777,0,1.074c0.148,0.148,0.343,0.223,0.537,0.223C8.408,40.51,8.603,40.436,8.751,40.287z"/>
<path fill="#FFFFFF" d="M36.15,12.573c0.194,0,0.389-0.074,0.537-0.223l4.298-4.298c0.297-0.297,0.297-0.778,0-1.075
	s-0.778-0.297-1.074,0l-4.298,4.298c-0.297,0.297-0.297,0.777,0,1.074C35.762,12.499,35.956,12.573,36.15,12.573z"/>
<path fill="#FFFFFF" d="M36.688,34.915c-0.297-0.297-0.777-0.297-1.074,0s-0.297,0.777,0,1.074l4.298,4.298
	c0.148,0.148,0.344,0.223,0.537,0.223c0.195,0,0.389-0.074,0.537-0.223c0.297-0.297,0.297-0.778,0-1.074L36.688,34.915z"/>
<path fill="#FFFFFF" d="M11.975,12.351c0.148,0.148,0.343,0.223,0.537,0.223s0.389-0.074,0.537-0.223
	c0.297-0.297,0.297-0.777,0-1.074L8.751,6.978c-0.297-0.297-0.778-0.297-1.075,0s-0.297,0.778,0,1.075L11.975,12.351z"/>
</svg>
